# xmcd
#
# Track frame offsets:
#	150
#	12475
#	24557
#	38247
#	50750
#	64512
#	75260
#	89347
#	100612
#	113955
#	136247
#	157290
#	169157
#	182530
#	195107
#	215867
#	225102
#	237465
#	255887
#	272895
#
# Disc length: 3871 seconds
#
# Revision: 5
# Processed by: cddbd v1.5.2PL0 Copyright (c) Steve Scherf et al.
# Submitted via: EasyCDDAExtractor 11.1.0.1
#
DISCID=030f1d14
DTITLE=Various Artist - The Best Of The Charly Blues Masterworks Series - Dis
DTITLE=c 2
DYEAR=1992
DGENRE=Blues
TTITLE0=Billy Boy Arnold - I Wish You Would
TTITLE1=John Lee Hooker - Everybody Rockin'
TTITLE2=Eddie Taylor - Bad Boy
TTITLE3=Jimmy Witherspoon - Everyday (I Have The Blues)
TTITLE4=Howlin' Wolf - Smokestack Lightnin'
TTITLE5=Elmore James - One Way Out
TTITLE6=Otis Rush - I Can't Quit You Baby
TTITLE7=Frank Frost - Jelly Roll King
TTITLE8=Magic Sam - All Your Love
TTITLE9=Luther Allison - Sweet Home Chicago
TTITLE10=Muddy Waters, Willie Dixon, Buddy Guy - Wee, Wee Baby
TTITLE11=Buddy Guy - My Love Is Real
TTITLE12=John Lee Hooker - One Bourbon, One Scotch, One Beer
TTITLE13=Muddy Waters - Can't Get No Grindin'  (What's The Matter With The Mil
TTITLE13=l)
TTITLE14=Lightnin' Hopkins - Morning Blues
TTITLE15=Clarence 'Gatemouth' Brown - Gate's Salty Blues
TTITLE16=Eric Clapton And Howlin  Wolf - Highway 49
TTITLE17=Albert King - Don't Burn Down The Bridge
TTITLE18=Robet Cray - Who's Been Talkin
TTITLE19=Champion Jack Dupree - My Baby's Coming Home
EXTD=
EXTT0=
EXTT1=
EXTT2=
EXTT3=
EXTT4=
EXTT5=
EXTT6=
EXTT7=
EXTT8=
EXTT9=
EXTT10=
EXTT11=
EXTT12=
EXTT13=
EXTT14=
EXTT15=
EXTT16=
EXTT17=
EXTT18=
EXTT19=
PLAYORDER=
